<svg width="42" height="42" viewBox="0 0 42 42" fill="none" xmlns="http://www.w3.org/2000/svg">
    <path d="M24.4516 23.888V26H18.6436V23.888H19.6756V20.072C19.6756 19.592 19.5556 19.224 19.3156 18.968C19.0916 18.696 18.7796 18.56 18.3796 18.56C17.8196 18.56 17.2356 18.752 16.6276 19.136C16.6436 19.216 16.6516 19.344 16.6516 19.52V23.888H17.8756V26H12.0676V23.888H13.0996V20.072C13.0996 19.592 12.9876 19.224 12.7636 18.968C12.5396 18.696 12.2196 18.56 11.8036 18.56C11.3396 18.56 10.8356 18.704 10.2916 18.992V23.888H11.3236V26H5.46759V23.888H6.71559V18.488H5.49159V16.4H10.0276L10.0756 17.24C11.1476 16.52 12.2516 16.16 13.3876 16.16C14.0276 16.16 14.5796 16.288 15.0436 16.544C15.5236 16.8 15.8916 17.152 16.1476 17.6C17.4116 16.64 18.6756 16.16 19.9396 16.16C20.9636 16.16 21.7636 16.472 22.3396 17.096C22.9316 17.704 23.2276 18.504 23.2276 19.496V23.888H24.4516ZM20.7659 18.488H19.9019V16.4H24.8219V18.488H23.9579L25.4459 23.096L26.9579 18.488H26.0699V16.4H30.7499V18.488H29.8619L31.3979 23.096L32.8139 18.488H31.9259V16.4H36.8459V18.488H35.9579L33.1979 26H30.0539L28.3499 21.152L26.6219 26H23.4299L20.7659 18.488Z" fill="white"/>
    <circle cx="16" cy="21" r="11.5" stroke="white"/>
    <rect x="15.5" y="9.5" width="23" height="23" stroke="white"/>
</svg>

