<svg width="133" height="41" viewBox="0 0 133 41" fill="none" xmlns="http://www.w3.org/2000/svg">
    <path d="M43.128 24.552H44.496V15.6H43.128V13.128H51.144C52.856 13.128 54.136 13.432 54.984 14.04C55.832 14.632 56.256 15.456 56.256 16.512C56.256 17.328 56.04 17.968 55.608 18.432C55.176 18.896 54.504 19.232 53.592 19.44C55.848 19.808 56.976 21.016 56.976 23.064C56.976 24.344 56.504 25.32 55.56 25.992C54.616 26.664 53.192 27 51.288 27H43.128V24.552ZM50.28 18.528C51.528 18.528 52.152 18.024 52.152 17.016C52.152 16.536 51.992 16.184 51.672 15.96C51.352 15.72 50.856 15.6 50.184 15.6H48.576V18.528H50.28ZM50.472 24.528C52.008 24.528 52.776 23.904 52.776 22.656C52.776 21.424 52 20.808 50.448 20.808H48.576V24.528H50.472ZM70.3014 24.888V27H65.7894L65.6934 26.088C64.6214 26.856 63.5174 27.24 62.3814 27.24C61.3254 27.24 60.5094 26.928 59.9334 26.304C59.3734 25.664 59.0934 24.856 59.0934 23.88V19.488H57.8934V17.4H62.6694V23.352C62.6694 23.832 62.7734 24.2 62.9814 24.456C63.2054 24.712 63.5254 24.84 63.9414 24.84C64.4374 24.84 64.9574 24.672 65.5014 24.336V19.488H64.4454V17.4H69.0534V24.888H70.3014ZM76.9984 20.88C78.1664 21.136 79.0304 21.512 79.5904 22.008C80.1504 22.504 80.4304 23.232 80.4304 24.192C80.4304 25.152 80.0944 25.904 79.4224 26.448C78.7664 26.976 77.9264 27.24 76.9024 27.24C76.2784 27.24 75.6944 27.16 75.1504 27C74.6224 26.84 74.1744 26.616 73.8064 26.328V27H71.5744V23.832H73.6624L73.7344 24.72C74.3904 25.152 75.1184 25.368 75.9184 25.368C76.3024 25.368 76.6064 25.296 76.8304 25.152C77.0704 25.008 77.1904 24.808 77.1904 24.552C77.1904 24.248 77.0704 24.024 76.8304 23.88C76.5904 23.72 76.1664 23.568 75.5584 23.424L74.6944 23.256C73.5584 23 72.7504 22.64 72.2704 22.176C71.7904 21.712 71.5504 21.048 71.5504 20.184C71.5504 19.256 71.8704 18.52 72.5104 17.976C73.1664 17.432 74.0464 17.16 75.1504 17.16C76.1744 17.16 77.0384 17.392 77.7424 17.856V17.376H79.9744V20.4H77.8864L77.7664 19.416C77.5264 19.288 77.2384 19.184 76.9024 19.104C76.5824 19.008 76.2784 18.96 75.9904 18.96C75.6384 18.96 75.3504 19.032 75.1264 19.176C74.9184 19.32 74.8144 19.52 74.8144 19.776C74.8144 20.032 74.9104 20.224 75.1024 20.352C75.2944 20.48 75.5904 20.592 75.9904 20.688L76.9984 20.88ZM84.4637 15.624C83.8397 15.624 83.3357 15.44 82.9517 15.072C82.5677 14.704 82.3757 14.224 82.3757 13.632C82.3757 13.04 82.5677 12.56 82.9517 12.192C83.3357 11.824 83.8397 11.64 84.4637 11.64C85.0877 11.64 85.5837 11.824 85.9517 12.192C86.3357 12.544 86.5277 13.024 86.5277 13.632C86.5437 14.224 86.3597 14.704 85.9757 15.072C85.5917 15.44 85.0877 15.624 84.4637 15.624ZM81.7037 24.888H82.9517V19.488H81.7037V17.4H86.5277V24.888H87.7517V27H81.7037V24.888ZM100.742 24.888V27H94.9343V24.888H95.9423V21.072C95.9423 20.592 95.8303 20.224 95.6063 19.968C95.3823 19.696 95.0703 19.56 94.6703 19.56C94.1743 19.56 93.6623 19.712 93.1343 20.016V24.888H94.1663V27H88.3103V24.888H89.5583V19.488H88.3103V17.4H92.8703L92.9183 18.264C94.0063 17.528 95.1103 17.16 96.2303 17.16C97.2543 17.16 98.0543 17.472 98.6303 18.096C99.2223 18.704 99.5183 19.504 99.5183 20.496V24.888H100.742ZM111.278 22.752H104.654C104.798 23.36 105.094 23.824 105.542 24.144C106.006 24.448 106.574 24.6 107.246 24.6C108.35 24.6 109.342 24.256 110.222 23.568L111.206 25.68C110.646 26.176 109.982 26.568 109.214 26.856C108.462 27.128 107.646 27.264 106.766 27.264C105.086 27.264 103.742 26.816 102.734 25.92C101.742 25.024 101.246 23.784 101.246 22.2C101.246 21.208 101.47 20.328 101.918 19.56C102.366 18.792 102.99 18.2 103.79 17.784C104.59 17.352 105.494 17.136 106.502 17.136C107.99 17.136 109.158 17.592 110.006 18.504C110.854 19.416 111.278 20.616 111.278 22.104V22.752ZM107.99 21.24C107.99 20.68 107.846 20.24 107.558 19.92C107.286 19.6 106.894 19.44 106.382 19.44C105.886 19.44 105.486 19.6 105.182 19.92C104.878 20.224 104.686 20.664 104.606 21.24H107.99ZM118.143 20.88C119.311 21.136 120.175 21.512 120.735 22.008C121.295 22.504 121.575 23.232 121.575 24.192C121.575 25.152 121.239 25.904 120.567 26.448C119.911 26.976 119.071 27.24 118.047 27.24C117.423 27.24 116.839 27.16 116.295 27C115.767 26.84 115.319 26.616 114.951 26.328V27H112.719V23.832H114.807L114.879 24.72C115.535 25.152 116.263 25.368 117.063 25.368C117.447 25.368 117.751 25.296 117.975 25.152C118.215 25.008 118.335 24.808 118.335 24.552C118.335 24.248 118.215 24.024 117.975 23.88C117.735 23.72 117.311 23.568 116.703 23.424L115.839 23.256C114.703 23 113.895 22.64 113.415 22.176C112.935 21.712 112.695 21.048 112.695 20.184C112.695 19.256 113.015 18.52 113.655 17.976C114.311 17.432 115.191 17.16 116.295 17.16C117.319 17.16 118.183 17.392 118.887 17.856V17.376H121.119V20.4H119.031L118.911 19.416C118.671 19.288 118.383 19.184 118.047 19.104C117.727 19.008 117.423 18.96 117.135 18.96C116.783 18.96 116.495 19.032 116.271 19.176C116.063 19.32 115.959 19.52 115.959 19.776C115.959 20.032 116.055 20.224 116.247 20.352C116.439 20.48 116.735 20.592 117.135 20.688L118.143 20.88ZM128.969 20.88C130.137 21.136 131.001 21.512 131.561 22.008C132.121 22.504 132.401 23.232 132.401 24.192C132.401 25.152 132.065 25.904 131.393 26.448C130.737 26.976 129.897 27.24 128.873 27.24C128.249 27.24 127.665 27.16 127.121 27C126.593 26.84 126.145 26.616 125.777 26.328V27H123.545V23.832H125.633L125.705 24.72C126.361 25.152 127.089 25.368 127.889 25.368C128.273 25.368 128.577 25.296 128.801 25.152C129.041 25.008 129.161 24.808 129.161 24.552C129.161 24.248 129.041 24.024 128.801 23.88C128.561 23.72 128.137 23.568 127.529 23.424L126.665 23.256C125.529 23 124.721 22.64 124.241 22.176C123.761 21.712 123.521 21.048 123.521 20.184C123.521 19.256 123.841 18.52 124.481 17.976C125.137 17.432 126.017 17.16 127.121 17.16C128.145 17.16 129.009 17.392 129.713 17.856V17.376H131.945V20.4H129.857L129.737 19.416C129.497 19.288 129.209 19.184 128.873 19.104C128.553 19.008 128.249 18.96 127.961 18.96C127.609 18.96 127.321 19.032 127.097 19.176C126.889 19.32 126.785 19.52 126.785 19.776C126.785 20.032 126.881 20.224 127.073 20.352C127.265 20.48 127.561 20.592 127.961 20.688L128.969 20.88Z" fill="url(#paint0_linear)"/>
    <path d="M24.4516 23.888V26H18.6436V23.888H19.6756V20.072C19.6756 19.592 19.5556 19.224 19.3156 18.968C19.0916 18.696 18.7796 18.56 18.3796 18.56C17.8196 18.56 17.2356 18.752 16.6276 19.136C16.6436 19.216 16.6516 19.344 16.6516 19.52V23.888H17.8756V26H12.0676V23.888H13.0996V20.072C13.0996 19.592 12.9876 19.224 12.7636 18.968C12.5396 18.696 12.2196 18.56 11.8036 18.56C11.3396 18.56 10.8356 18.704 10.2916 18.992V23.888H11.3236V26H5.46759V23.888H6.71559V18.488H5.49159V16.4H10.0276L10.0756 17.24C11.1476 16.52 12.2516 16.16 13.3876 16.16C14.0276 16.16 14.5796 16.288 15.0436 16.544C15.5236 16.8 15.8916 17.152 16.1476 17.6C17.4116 16.64 18.6756 16.16 19.9396 16.16C20.9636 16.16 21.7636 16.472 22.3396 17.096C22.9316 17.704 23.2276 18.504 23.2276 19.496V23.888H24.4516ZM20.7659 18.488H19.9019V16.4H24.8219V18.488H23.9579L25.4459 23.096L26.9579 18.488H26.0699V16.4H30.7499V18.488H29.8619L31.3979 23.096L32.8139 18.488H31.9259V16.4H36.8459V18.488H35.9579L33.1979 26H30.0539L28.3499 21.152L26.6219 26H23.4299L20.7659 18.488Z" fill="white"/>
    <circle cx="16" cy="21" r="11.5" stroke="white"/>
    <rect x="15.5" y="9.5" width="23" height="23" stroke="white"/>
    <defs>
    <linearGradient id="paint0_linear" x1="127.5" y1="1" x2="127.5" y2="42" gradientUnits="userSpaceOnUse">
    <stop stop-color="white"/>
    </linearGradient>
    </defs>
</svg>
