<svg width="116" height="41" viewBox="0 0 116 41" fill="none" xmlns="http://www.w3.org/2000/svg">
    <path d="M43.128 24.552H44.496V15.6H43.128V13.128H50.664C52.632 13.128 54.112 13.464 55.104 14.136C56.096 14.792 56.592 15.848 56.592 17.304C56.592 18.792 56.12 19.88 55.176 20.568C54.232 21.256 52.84 21.6 51 21.6H49.488V19.152H50.448C51.072 19.152 51.552 19 51.888 18.696C52.24 18.376 52.416 17.928 52.416 17.352C52.416 16.776 52.256 16.344 51.936 16.056C51.616 15.752 51.152 15.6 50.544 15.6H48.576V24.552H50.112V27H43.128V24.552ZM64.9172 17.184C65.5252 17.184 66.1332 17.328 66.7412 17.616L65.9972 20.496C65.3572 20.16 64.7012 19.992 64.0292 19.992C63.5652 19.992 63.1572 20.128 62.8052 20.4C62.4532 20.656 62.2772 21.048 62.2772 21.576V24.888H63.6452V27H57.4772V24.888H58.7252V19.488H57.4772V17.4H62.2772V19.272C62.9172 17.88 63.7972 17.184 64.9172 17.184ZM69.8649 15.624C69.2409 15.624 68.7369 15.44 68.3529 15.072C67.9689 14.704 67.7769 14.224 67.7769 13.632C67.7769 13.04 67.9689 12.56 68.3529 12.192C68.7369 11.824 69.2409 11.64 69.8649 11.64C70.4889 11.64 70.9849 11.824 71.3529 12.192C71.7369 12.544 71.9289 13.024 71.9289 13.632C71.9449 14.224 71.7609 14.704 71.3769 15.072C70.9929 15.44 70.4889 15.624 69.8649 15.624ZM67.1049 24.888H68.3529V19.488H67.1049V17.4H71.9289V24.888H73.1529V27H67.1049V24.888ZM74.3355 19.488H73.3755V17.4H79.1835V19.488H78.1755L80.0235 23.736L81.8475 19.488H80.8395V17.4H85.5435V19.488H84.6315L81.0315 27H77.9595L74.3355 19.488ZM96.7693 24.888V27H92.6893L92.4253 26.16C91.5453 26.88 90.5373 27.24 89.4013 27.24C88.4253 27.24 87.6493 26.984 87.0733 26.472C86.4973 25.96 86.2093 25.28 86.2093 24.432C86.2093 23.408 86.5693 22.656 87.2893 22.176C88.0093 21.696 88.9213 21.456 90.0253 21.456C90.7773 21.456 91.4813 21.552 92.1373 21.744V21.288C92.1373 20.088 91.5293 19.488 90.3133 19.488C89.4493 19.488 88.3933 19.76 87.1453 20.304L86.3533 18.264C87.9213 17.528 89.5293 17.16 91.1773 17.16C92.5853 17.16 93.6733 17.504 94.4413 18.192C95.2253 18.88 95.6173 19.84 95.6173 21.072V24.888H96.7693ZM89.3773 24.216C89.3773 24.584 89.4813 24.872 89.6893 25.08C89.9133 25.288 90.2253 25.392 90.6253 25.392C91.1853 25.392 91.6893 25.2 92.1373 24.816V23.208C91.7053 23.064 91.2733 22.992 90.8413 22.992C90.4253 22.992 90.0733 23.096 89.7853 23.304C89.5133 23.496 89.3773 23.8 89.3773 24.216ZM101.627 27C99.5629 27 98.5309 26.048 98.5309 24.144V19.488H97.3309V17.4H98.5069V14.28L102.083 13.68V17.4H104.243V19.488H102.083V23.544C102.083 24.008 102.163 24.336 102.323 24.528C102.499 24.72 102.795 24.816 103.211 24.816H104.315V27H101.627ZM115.166 22.752H108.542C108.686 23.36 108.982 23.824 109.43 24.144C109.894 24.448 110.462 24.6 111.134 24.6C112.238 24.6 113.23 24.256 114.11 23.568L115.094 25.68C114.534 26.176 113.87 26.568 113.102 26.856C112.35 27.128 111.534 27.264 110.654 27.264C108.974 27.264 107.63 26.816 106.622 25.92C105.63 25.024 105.134 23.784 105.134 22.2C105.134 21.208 105.358 20.328 105.806 19.56C106.254 18.792 106.878 18.2 107.678 17.784C108.478 17.352 109.382 17.136 110.39 17.136C111.878 17.136 113.046 17.592 113.894 18.504C114.742 19.416 115.166 20.616 115.166 22.104V22.752ZM111.878 21.24C111.878 20.68 111.734 20.24 111.446 19.92C111.174 19.6 110.782 19.44 110.27 19.44C109.774 19.44 109.374 19.6 109.07 19.92C108.766 20.224 108.574 20.664 108.494 21.24H111.878Z" fill="url(#paint0_linear)"/>
    <path d="M24.4516 23.888V26H18.6436V23.888H19.6756V20.072C19.6756 19.592 19.5556 19.224 19.3156 18.968C19.0916 18.696 18.7796 18.56 18.3796 18.56C17.8196 18.56 17.2356 18.752 16.6276 19.136C16.6436 19.216 16.6516 19.344 16.6516 19.52V23.888H17.8756V26H12.0676V23.888H13.0996V20.072C13.0996 19.592 12.9876 19.224 12.7636 18.968C12.5396 18.696 12.2196 18.56 11.8036 18.56C11.3396 18.56 10.8356 18.704 10.2916 18.992V23.888H11.3236V26H5.46759V23.888H6.71559V18.488H5.49159V16.4H10.0276L10.0756 17.24C11.1476 16.52 12.2516 16.16 13.3876 16.16C14.0276 16.16 14.5796 16.288 15.0436 16.544C15.5236 16.8 15.8916 17.152 16.1476 17.6C17.4116 16.64 18.6756 16.16 19.9396 16.16C20.9636 16.16 21.7636 16.472 22.3396 17.096C22.9316 17.704 23.2276 18.504 23.2276 19.496V23.888H24.4516ZM20.7659 18.488H19.9019V16.4H24.8219V18.488H23.9579L25.4459 23.096L26.9579 18.488H26.0699V16.4H30.7499V18.488H29.8619L31.3979 23.096L32.8139 18.488H31.9259V16.4H36.8459V18.488H35.9579L33.1979 26H30.0539L28.3499 21.152L26.6219 26H23.4299L20.7659 18.488Z" fill="white"/>
    <circle cx="16" cy="21" r="11.5" stroke="white"/>
    <rect x="15.5" y="9.5" width="23" height="23" stroke="white"/>
    <defs>
    <linearGradient id="paint0_linear" x1="127.5" y1="1" x2="127.5" y2="42" gradientUnits="userSpaceOnUse">
    <stop stop-color="white"/>
    </linearGradient>
    </defs>
</svg>

